<?xml version="1.0" encoding="UTF-8" standalone="no"?>
<svg
   xmlns:dc="http://purl.org/dc/elements/1.1/"
   xmlns:cc="http://creativecommons.org/ns#"
   xmlns:rdf="http://www.w3.org/1999/02/22-rdf-syntax-ns#"
   xmlns:svg="http://www.w3.org/2000/svg"
   xmlns="http://www.w3.org/2000/svg"
   xmlns:sodipodi="http://sodipodi.sourceforge.net/DTD/sodipodi-0.dtd"
   xmlns:inkscape="http://www.inkscape.org/namespaces/inkscape"
   width="210mm"
   height="297mm"
   viewBox="0 0 210 297"
   version="1.1"
   id="svg924"
   inkscape:version="1.0.2 (394de47547, 2021-03-26)"
   sodipodi:docname="pi.svg">
  <defs
     id="defs918" />
  <sodipodi:namedview
     id="base"
     pagecolor="#ffffff"
     bordercolor="#666666"
     borderopacity="1.0"
     inkscape:pageopacity="0.0"
     inkscape:pageshadow="2"
     inkscape:zoom="1.4082256"
     inkscape:cx="577.66054"
     inkscape:cy="518.29073"
     inkscape:document-units="mm"
     inkscape:current-layer="layer1"
     inkscape:document-rotation="0"
     showgrid="false"
     inkscape:window-width="1920"
     inkscape:window-height="1027"
     inkscape:window-x="0"
     inkscape:window-y="0"
     inkscape:window-maximized="1" />
  <metadata
     id="metadata921">
    <rdf:RDF>
      <cc:Work
         rdf:about="">
        <dc:format>image/svg+xml</dc:format>
        <dc:type
           rdf:resource="http://purl.org/dc/dcmitype/StillImage" />
        <dc:title></dc:title>
      </cc:Work>
    </rdf:RDF>
  </metadata>
  <g
     inkscape:label="Layer 1"
     inkscape:groupmode="layer"
     id="layer1">
    <path
       style="fill:none;stroke:#000000;stroke-width:0.264583px;stroke-linecap:butt;stroke-linejoin:miter;stroke-opacity:1"
       d="m 143.06566,108.27893 c 0,0 12.44918,1.2748 19.26247,-0.8754 6.81328,-2.15021 8.49215,-6.13911 8.69481,-9.448656 0.20265,-3.309549 0.69826,-6.610308 -2.86214,-7.098374 -3.5604,-0.488069 -3.28256,-0.357436 -3.28256,1.827231 0,2.184667 -1.36552,6.386846 -4.34663,5.895242 -2.98111,-0.491604 -20.684,0.0584 -20.684,0.0584 l -13.85329,-1.087176 -2.40493,-1.975379 c 0,0 2.32669,0.986729 6.4303,-0.140577 4.10362,-1.127305 4.31138,-4.584424 4.31138,-4.584424 0,0 -0.16524,-3.759175 -2.35341,-5.363358 -2.18817,-1.604183 -10.31533,-1.136204 -10.31533,-1.136204 0,0 -8.55832,1.189643 -9.61521,3.698741 -1.0569,2.509098 0.99944,5.122034 0.99944,5.122034 0,0 -1.06233,1.203955 2.85693,1.740934 3.91926,0.536979 7.6859,0.662854 7.6859,0.662854 0,0 -3.19879,-1.590578 -4.08963,-3.46715 -0.89085,-1.876571 2.9e-4,-2.733951 3.34601,-2.723219 3.34572,0.01073 4.88824,1.490629 4.32645,2.715703 -0.56178,1.225073 0.22813,1.466496 -1.89518,2.238281 -2.12331,0.771785 -1.68765,1.236385 -1.68765,1.236385 l -16.69303,0.17274 -15.103372,-0.341057 3.892037,-0.445204 c 0,0 3.461454,-0.650324 5.919915,-1.131961 2.45845,-0.481637 1.69633,-4.637353 1.69633,-4.637353 0,0 -0.17372,-3.998304 -1.96294,-4.512199 -1.789208,-0.513895 -7.097487,-0.758323 -9.404383,-0.585797 -2.306897,0.172527 -5.515079,-0.0064 -6.461527,1.533787 -0.946448,1.540188 -2.039786,1.771766 -1.551343,3.615971 0.488443,1.844204 3.574501,4.151717 3.574501,4.151717 l 4.356651,1.858318 c 0,0 -3.923006,-1.779989 -3.181847,-3.289224 0.741159,-1.509234 1.89567,-2.523102 3.258949,-2.672232 1.363278,-0.14913 2.942451,0.100246 3.209031,1.38304 0.26658,1.282793 0.386095,1.813067 0.01734,2.436374 -0.36875,0.623306 -0.160408,1.04631 -1.756368,1.571279 -1.595961,0.52497 -1.547109,0.570763 -1.547109,0.570763 0,0 -9.822143,-0.0059 -11.121311,0.232292 -1.299168,0.238236 -8.095234,-0.144752 -9.90066,1.204106 -1.805427,1.348858 -3.444632,2.760948 -3.054334,4.391932 0.390298,1.63098 0.746136,4.75543 3.275153,6.08551 2.529017,1.33009 8.640952,3.4843 11.698222,2.1322 3.057269,-1.35211 6.825148,-1.98756 7.33457,-3.15942 0.509423,-1.17187 2.095005,-3.6965 1.44858,-4.56077 -0.646425,-0.86428 -2.079753,-2.32797 -4.969218,-1.12192 -2.889465,1.20606 2.946596,-0.910062 2.946596,-0.910062 0,0 2.99609,1.412962 2.329367,2.267572 -0.666723,0.8546 -1.302976,3.44003 -1.302976,3.44003 l -1.183657,1.64238 c 0,0 0.850605,0.84884 3.488816,0.85934 2.638211,0.0105 2.409411,3.03035 2.409411,3.03035 l -2.374194,27.62152 -2.811061,10.12607 c 0,0 -4.194815,9.66275 -4.671934,10.80418 -0.477118,1.14142 -3.477887,10.53135 -3.477887,10.53135 0,0 -1.036884,4.74385 2.618945,5.03211 3.655829,0.28826 7.677118,2.36527 9.351402,-0.48645 1.674284,-2.85171 4.31019,-8.41 4.706141,-9.33497 0.395951,-0.92498 3.904514,-19.21642 3.904514,-19.21642 0,0 5.47489,-21.94971 5.47288,-24.8934 -0.002,-2.94369 2.03458,-8.82001 4.92097,-8.63212 2.88639,0.18788 5.31872,-2.01073 6.40836,0.9702 1.08963,2.98093 0.45694,8.17325 0.19864,9.42361 -0.25831,1.25036 0.34137,24.75086 0.34137,24.75086 0,0 -0.92638,19.00431 -0.18672,20.24853 0.73966,1.24421 0.10648,5.47285 2.88332,4.82766 2.77684,-0.64519 6.89604,2.695 7.29996,-1.21613 0.40392,-3.91113 -0.0398,-15.07375 -0.0398,-16.39501 0,-1.32126 -1.01035,-18.59729 -1.01035,-18.59729 0,0 -0.92538,-12.19275 -0.47966,-14.62377 0.44572,-2.43103 0.82538,-4.84188 1.74176,-6.52448 0.91638,-1.68259 2.60154,-4.607 4.35377,-5.44649 1.75223,-0.83949 8.66442,-1.47795 8.66442,-1.47795 z"
       id="path1489"
       sodipodi:nodetypes="csssssccc" />
  </g>
</svg>
